<svg xmlns="http://www.w3.org/2000/svg" width="567" height="296" xmlns:v="https://vecta.io/nano"><path d="M514.45 148.68c-1.375 1.284-2.685 2.07-3.906 3.227.927-1.3 1.915-2.407 3.08-3.716 4.722-4.927 10.3-9.204 16.378-12.616-1.385.702-2.836 1.305-4.182 2.102l-4.063 2.38c2.47-1.693 5.163-3.4 7.578-4.742 1.38-.874 2.743-1.592 4.088-2.305l2.003-1.084c.67-.357 1.377-.637 2.078-.96-.738.228-1.493.406-2.213.666l-2.164.8-2.184.82c-.73.286-1.43.662-2.158 1.01-4.784 2.25-9.325 5.298-13.486 8.71-4.707 3.86-8.986 8.318-12.503 13.35-3.54 4.96-6.388 10.667-8.445 16.04-1.263 3.172-1.857 6.264-2.832 9.266-1.587 2.137-3.208 4.19-4.923 5.937l.116-.145c-1.72 2.87-3.725 5.277-6.003 6.878-2.284 1.62-4.812 2.496-7.658 2.667-2.874.18-6.156-.383-9.635-1.152-3.496-.77-7.2-1.793-11.354-2.458-3.825-.6-8.206-.886-12.747.24-1.123.253-2.226.717-3.33 1.097-1.074.46-2.112.962-3.12 1.572-2.04 1.185-3.857 2.786-5.437 4.512-1.556 1.76-2.765 3.686-3.784 5.62a40.333 40.333 0 0 0-2.324 5.8c-1.206 3.83-1.874 7.502-2.494 11.036-.99 5.852-1.84 11.286-3.23 16.1-1.37 4.83-3.3 8.847-5.943 11.368-2.617 2.57-5.913 3.9-10.344 4.225-4.4.343-9.533-.316-14.914-1.193-5.4-.856-11.083-1.992-17.33-2.47-3.12-.23-6.393-.294-9.824.067-3.418.36-7.024 1.18-10.477 2.73-2.883 1.305-5.638 3.03-7.974 5.215-2.357 2.167-4.322 4.7-5.844 7.335-3.068 5.3-4.455 10.71-5.454 15.713-.99 5.04-1.53 9.795-2.227 14.28-.695 4.444-1.495 8.662-2.845 12.1-2.657 6.927-7.225 10.224-14.578 10.54-3.672.178-7.912-.414-12.357-1.194-4.453-.783-9.19-1.794-14.3-2.46-5.098-.63-10.743-.967-16.75.35-2.98.66-6.012 1.775-8.76 3.392-2.758 1.59-5.254 3.653-7.322 5.93-4.162 4.595-6.624 9.73-8.556 14.487-1.922 4.793-3.32 9.384-4.835 13.606-1.5 4.214-3.107 8.09-5.106 11.09-2 3.02-4.296 5.015-7.158 6.26-2.88 1.22-6.55 1.676-10.732 1.642-4.18-.02-8.78-.495-13.76-.757-5.296-.27-11.26-.347-17.56 1.42-.782.233-1.564.436-2.34.708l-2.312.978c-1.573.596-2.956 1.56-4.397 2.4-.735.414-1.387.925-2.025 1.453l-1.928 1.574c-1.208 1.1-2.285 2.297-3.38 3.474-4.067 4.882-6.6 10.103-8.78 14.97-2.153 4.9-3.924 9.56-5.897 13.76-1.96 4.2-4.126 7.9-6.706 10.676-2.557 2.825-5.875 4.915-9.695 6.588s-8.195 2.8-12.824 3.65c-4.63.87-9.5 1.488-14.562 2.176-3.597.505-7.32.998-11.468 1.94-4.027.904-7.966 2.232-11.758 3.86s-7.424 3.606-10.717 6.05c-3.28 2.442-6.304 5.174-8.626 8.427-.933 1.204-1.635 2.546-2.33 3.7-.613 1.25-1.09 2.485-1.523 3.6-.352 1.17-.58 2.29-.783 3.293-.236.994-.17 1.974-.207 2.81a9.856 9.856 0 0 0 .608 3.912c.34.922.733 1.464 1.155 1.672.843.415 1.807-.505 2.81-2.344l.375-.733.492-.8a37.68 37.68 0 0 0 1.028-1.82c.856-1.266 1.742-2.72 3.02-4.185 2.757-3.313 6.604-5.667 11.45-8.526 3.795-2.205 8.027-3.98 12.46-5.28 4.467-1.34 8.937-2.04 13.937-2.638 9.82-1.253 20.203-2.02 30.525-5.363 3.494-1.174 7.1-2.718 10.497-4.975 3.396-2.238 6.523-5.148 9.138-8.408 2.563-3.272 4.533-6.76 6.286-10.2 1.705-3.45 3.144-6.833 4.557-10.082 2.618-6.05 5.226-11.76 8.635-15.72.4-.556.875-.927 1.3-1.383.443-.437.86-.915 1.36-1.232l1.412-1.087c.52-.275 1.03-.557 1.53-.85 2.072-1.032 4.303-1.733 6.95-2 2.647-.268 5.543-.258 8.63-.07l9.9.798c3.52.24 7.246.383 11.23.09 3.992-.323 8.336-1.3 12.44-3.227 3.43-1.552 6.544-3.9 9.05-6.585 2.524-2.68 4.464-5.635 6-8.55 3.064-5.862 4.747-11.56 6.467-16.804 1.687-5.225 3.318-10.13 5.572-13.914 2.242-3.807 4.945-6.328 8.562-7.644 4.402-1.716 10.512-1.152 16.918-.135 4.93.762 10.14 1.887 15.807 2.587 2.836.344 5.803.577 8.926.495 3.115-.085 6.415-.503 9.693-1.53 3.278-1.02 6.466-2.676 9.2-4.843 2.747-2.156 5.064-4.87 6.793-7.732 3.474-5.785 4.833-11.76 5.826-17.248.962-5.524 1.467-10.77 2.28-15.67.8-4.88 1.9-9.442 3.818-12.987 1.882-3.524 4.637-6.063 8.18-7.516 3.548-1.436 8.02-1.737 12.786-1.425 7.316.473 15.144 2.348 23.686 3.228 4.27.433 8.815.6 13.575-.17 4.723-.768 9.74-2.73 13.61-6.053 1.947-1.567 3.635-3.478 5-5.484 1.41-2.002 2.478-4.133 3.335-6.252 1.733-4.258 2.575-8.47 3.23-12.524 1.247-8.066 1.518-15.825 3.32-22.507.916-3.294 2.212-6.225 4.183-8.267.978-1.036 2.084-1.926 3.42-2.576a4.61 4.61 0 0 1 .996-.451l1.016-.4c.706-.2 1.44-.368 2.183-.525 3.05-.467 6.552-.104 10.218.57 3.68.66 7.532 1.642 11.718 2.222 2.616.4 5.416.53 8.272.33 2.88-.24 5.813-1.06 8.5-2.305 2.664-1.335 5.012-3.16 7.003-5.21 1.966-2.072 3.52-4.355 4.906-6.656 5.34-9.262 7.562-19.12 12.285-27.06 9.365-16.212 26.633-27.8 45.228-30.828 4.726-.683 9.354-1.422 14.12-1.246-3.513-1-6.914-1.896-11.17-2.145-.62-.033-1.786.038-3.092.174l-3.93.672 4.357-.806a100.6 100.6 0 0 0 4.215-.543c1.856-.22 3.644-.33 5.416-.526l5.335-.1c-7.467-1.38-15.275-1.382-23.083.024-.3.067-1.852.845-3.172 1.372-.907.393-1.903.794-2.922 1.2l-1.54.607-1.482.714c-1.465.945-2.95 1.772-4.372 2.855-1.44 1.046-2.985 2.018-4.544 3.26-.795.596-1.627 1.2-2.5 1.818l-2.675 2.093-1.467 1.095-1.48 1.242c-.997.877-2.163 1.67-3.238 2.695zM350.265 260.03c2.935-1.386 6.556-1.983 9.944-2.117.642-.022 1.263.118 1.884.236-3.052.14-6.095.577-9.024 1.518-1.64.564-3.32 1.22-4.83 2.137a14.75 14.75 0 0 0-1.932 1.407l-.938.758-.908.84c-2.26 2.046-4.045 4.583-5.342 7.34-1.317 2.75-2.215 5.7-2.887 8.668-.132.034-.392.142-.38.093.75-3.34 1.746-6.66 3.334-9.728 1.606-3.04 3.78-5.867 6.6-7.92a20.82 20.82 0 0 1 1.287-.855l1.4-.702c.503-.616.663-1.115 1.772-1.675zm80.176-54.008c1.102-1.49 2.406-2.815 3.912-3.864-1.42 1.286-2.374 2.917-3.434 4.406-3.047 4.47-4.276 9.915-5.19 15.25-.898 5.375-1.427 10.83-2.45 16.226-1.028 5.363-2.538 10.823-5.76 15.397-3.17 4.59-8.22 7.77-13.656 8.86-3.967.873-8.042.82-12.038.523-4.003-.337-7.96-.978-11.9-1.634-1.502-.254-2.962-.652-4.443-.977 1.52.164 3.038.27 4.56.517 3.9.628 7.833 1.27 11.78 1.612 3.937.294 7.94.354 11.768-.524 1.075-.202 2.117-.663 3.05-1.095.902-.524 1.717-.983 2.27-1.483.605-.493-.26-.405-.448-.585 2.183-.76 4.474-2.216 6.008-3.44 1.373-1.063 2.197-1.534 3.206-2.4.79-1.76 1.423-3.54 1.82-5.378.195-.98.3-1.98.41-2.963l.56-1.166c-.295 1.46-.63 2.92-1.096 4.336 1.878-2.304 2.94-5.81 3.492-9.493.584-3.692.744-7.604 1.27-11.162l-.986.24.232-1.615.756 1.53c.5-3.634 1.067-7.287 1.948-10.887.915-3.58 2.18-7.157 4.36-10.22zm31.165-4.53c-5.97-1.323-11.96-3.236-18.13-2.65 3.437-.464 6.94-.104 10.36.46 3.428.567 6.814 1.353 10.22 1.906l3.207.53c3.702.528 7.55.652 11.134-.543-3.86 1.624-8.248 1.692-11.883 1.4-2.22-.42-3.525-.8-4.907-1.112zM324.4 320.704c3.08-3.32 5.025-7.464 6.208-11.734 1.074-3.705 1.68-7.538 2.2-11.36l.9-6.932c-.08 2.155.002 4.086-.254 6.516a76.926 76.926 0 0 1-.858 5.948c-.395 2.147-.9 4.506-1.74 7.148-1.1 3.016-3.148 7.238-6.465 10.413zm166.5-131.43c1.753-3.645 2.982-7.378 4.395-11.393.348-1 1.445-2.774 2.205-4.196-1.055 3.384-2.014 6.77-3.4 10.69a52.602 52.602 0 0 1-1.685 2.706c-.5.804-1.01 1.5-1.513 2.195zM263.967 320.558c3.156-1 6.692-1.552 9.512-1.437 5.057.197 9.412 1.298 13.79 2.343l-4.22-.46c-6.45-1.243-12.686-1.932-19.082-.446zm81.904-60.475c3.378-2.33 7.203-3.95 11.413-4.5 2.05-.322 4.78.078 7.1.378-3.385-.02-6.85.315-9.57.98-3.763.648-6.468 1.73-8.933 3.153zm-.147-3.232a27.357 27.357 0 0 0-7.507 6.07c-2.114 2.436-3.727 5.18-4.95 7.934a43.92 43.92 0 0 1-.981 2.104l-.934 2.117c.633-2.106 1.424-4.232 2.407-6.27 1.038-2.022 2.176-3.982 3.562-5.652a26.75 26.75 0 0 1 8.403-6.303zm-77.084 65.12c1.333-.27 2.777-.566 4.028-.56 4.962.02 9.68.966 14.34 1.914-2.603-.4-5.216-.803-8.886-1.082-2.59-.335-6.016-.595-9.482-.272zm116.948-63.45c2.574.27 5.174.347 7.582.53 2.7.204 5.23.464 7.763.307-2.26.4-4.636.553-7.2.536-2.957-.348-5.54-.832-8.145-1.374zm86.162-60.798l1.122-.097 1.055-.22c.346-.077.705-.115 1.034-.204.324-.105.644-.198.968-.274 2.184-.564 4.23-1.497 6.075-2.99-1.317 1.215-2.683 2.353-4.702 3.15-.402.173-.847.236-1.29.318-.448.067-.87.212-1.346.236-.946.063-1.893.162-2.917.08zm-58.4 49.806c.23-.675.43-1.536.636-2.024 1.662-3.44 2.753-7.602 3.66-12.008-.3 2.23-.562 4.46-1.285 7.72-.686 1.94-1.72 4.35-3 6.312zm-81.834 37.168c-.258 1.4-.72 2.66-1.064 3.98.234-2.288.453-4.572.917-6.974.3-1.29.686-2.752 2.223-6.574a51.4 51.4 0 0 0-1.4 5.83l-.676 3.74zm20.516-30.593c2.32-.73 4.645-1.13 6.917-1.326 2.213-.11 4.37.007 6.434.23-2.157-.054-4.393.037-6.918.307-2.14.1-4.273.3-6.433.8zm151.304-94.862c.583-1.14 1.316-2.156 1.978-3.247.677-1.08 1.383-2.17 2.272-3.18.9-1.026 2.204-2.248 3.466-3.22-1.132 1.275-2.054 2.736-3.246 4.313-.93.888-1.614 1.865-2.373 2.724-.71.894-1.5 1.7-2.097 2.61zm-330.21 222.752c-1.28.96-2.618 1.76-3.667 2.794l-1.66 1.476c-.5.52-.987 1.066-1.487 1.613.5-.655.935-1.386 1.504-2.023a36.625 36.625 0 0 1 1.67-1.788c2.477-2.132 5.057-4.295 10.496-6.076l-2.675 1.29c-.786.344-1.347.847-1.89 1.17-1.034.73-1.805 1.13-2.292 1.544zm233.54-124.42c.537-.242 1.012-.612 1.496-.93.498-.294.928-.67 1.382-.95.514-.29.98-.604 1.463-.902l.734-.435.68-.514-.544.663-.635.626-.688.685-.834.67a10.04 10.04 0 0 1-1.589.64c-.5.185-.966.347-1.464.445zm-78.765 33.74c.285-1.98.678-3.973 1.093-6.012-.12 1.225-.134 2.37-.303 3.63l-.947 6.655-.282.217c.147-1.474.222-2.982.44-4.5zm2.817-8.416c-.15.752-.477 1.413-.698 2.107.32-2.095.66-4.215 1.212-6.378.173-.712.502-1.462 1.342-3.446-1.117 3.614-1.416 5.693-1.856 7.717zm-119.753 97.636c-1.65.036-3.382.088-4.927-.038-1.4-.12-2.622-.4-3.916-.634l5.95.266c.737.098 1.81.296 2.893.406zm209.087-144.146c-.467 3.076-1.06 6.07-2.028 8.902-.318.982-.87 1.94-1.372 2.848.522-1.264.936-2.6 1.013-2.892 1.322-3.558 1.855-6.213 2.387-8.858zm-46.237 17.474c.963.055 1.97.033 2.887.183 1.674.274 3.282.653 4.884.985l-4.143-.476-3.628-.692zM186.522 380.09c-1.12.255-2.254.418-3.323.83l-1.627.525c-.546.168-1.046.46-1.576.68-.757.344-1.726.533-2.52.985.7-.55 1.503-.915 2.327-1.33l1.27-.64 1.414-.513c1.526-.36 2.8-.43 4.036-.535zm238.33-162.184c-.194.95-.57 1.752-.824 2.626.223-1.53.476-3.062.834-4.595.298-1.028.514-2.105 2.014-5.574-1.5 4.283-1.605 5.98-2.024 7.543zm10.234-21.435c-1.968.916-3.8 2.152-5.438 3.603.305-.405.618-.777 1.032-1.122.954-.837 2.02-1.54 3.366-2.332.697-.34 1.43-.772 2.334-1.123.914-.315 1.93-.753 3.113-1.045-2.832 1.07-3.656 1.638-4.407 2.02zm-14.744 26.717c-.127.697-.28 1.296-.42 1.94l.473-3.645c.08-.466.258-.92.546-1.904l-.598 3.6zm70.126-35.793c.09.01-.48 1.205-.752 1.872-.487.582-1.16 1.32-1.475 1.538-.142.07.486-1.03.925-2.23.59-.557 1.132-1.2 1.302-1.18zm15.047-29.145c-.6.685-1.267 1.474-1.46 1.583-.138.054.478-1.3.84-1.7.542-.698 1.1-1.178 1.898-2.025-.53.9-.962 1.76-1.28 2.152zm-95.597 93.985c-.495.34-.865.408-1.267.593.47-.448.97-.9 1.37-1.328a3.1 3.1 0 0 1 .568-.4l.675-.506a9.536 9.536 0 0 1-1.347 1.641zm-95.377 70.847c1.16-.37 2.26-.876 3.315-1.453-.266.22-.532.515-.81.658-.544.274-1.132.448-1.71.678-.6.176-1.22.352-1.885.512.442-.135.75-.292 1.1-.395zm19.906-47.472l-.964 2.734c.262-1 .458-1.994.82-2.977.323-.942.703-1.876 1.65-3.783-.877 2.03-1.16 3.055-1.506 4.026zM458.28 197.52l2.175-.003c.03.005 1.32.38 1.274.393-.28.113-.758.177-1.222.257l-2.227-.647zM303.01 323.756c-.67-.123-.952-.302-1.395-.457.595.022 1.292.026 1.76.077.724.066 1.3.245 2.64.402-1.558.06-2.558.03-3.005-.022zm95.18-66.036c.836-.12 1.705-.19 2.5-.328a14.38 14.38 0 0 1 1.115-.1l1.078-.144-1.057.306-1.14.237c-.917.075-1.727.01-2.496.03zm-24.373-.705a3.347 3.347 0 0 1-1.244-.496c-.048-.033 1.186.01 1.65.1.802.15 1.48.344 2.735.67-1.485-.136-2.448-.146-3.14-.275zM321.26 315.17c.234-.403.45-.784.718-1.187.17-.3.43-.62.656-.93-.26.55-.487 1.143-.803 1.66l-.57.457zM439.788 93.794c-1.415.925-2.7 1.4-3.962 2.244.998-1.044 2.02-1.886 3.244-2.873 4.855-3.726 10.28-6.886 16.035-9.35-1.346.382-2.633.93-3.944 1.436l-1.964.77c-.65.267-1.278.6-1.918.882.6-.318 1.182-.66 1.795-.96l1.862-.855c1.243-.548 2.42-1.185 3.577-1.633 1.344-.57 2.603-1.15 3.848-1.716l3.82-1.473-4.05.855c-1.33.37-2.67.766-4.045 1.217-4.444 1.604-8.898 3.622-13 6.176-9.356 5.584-17.566 13.314-23.482 22.54-1.764 2.696-2.647 5.477-3.844 8.113-1.708 1.76-3.415 3.446-5.143 4.9l.12-.12c-.884 1.273-1.826 2.392-2.773 3.47-.98.994-1.95 1.983-2.997 2.69-.5.422-1.056.668-1.57 1.023-.557.23-1.065.58-1.64.74-1.09.475-2.257.673-3.595.855-2.657.343-5.865.157-9.476.18-1.82.02-3.76.096-5.83.4-2.076.312-4.297.9-6.44 1.904-.49.25-1.002.472-1.47.76l-1.378.913c-.45.318-.92.614-1.346.962l-1.212 1.13c-.4.39-.817.76-1.163 1.173l-.997 1.272c-.7.85-1.2 1.737-1.718 2.633-2 3.59-2.97 7.15-3.764 10.43-.775 3.292-1.337 6.387-2.024 9.233-.672 2.846-1.5 5.418-2.597 7.47-1.808 3.38-4.494 5.496-8.097 6.874-3.605 1.397-8.02 2.1-12.877 2.783-4.75.687-9.87 1.2-15.272 2.255-5.372 1.066-11.205 2.686-16.717 6.08-5.532 3.392-9.725 8.218-12.903 12.944-3.2 4.768-5.578 9.558-7.872 14.02-1.915 3.742-3.76 7.285-5.773 10.424s-4.212 5.775-6.677 7.792c-2.462 2.01-5.388 3.575-8.793 4.847-3.38 1.28-7.236 2.185-11.243 3.103-4.03.923-8.257 1.737-12.707 2.957-4.427 1.222-9.084 2.804-13.62 5.395-2.276 1.254-4.457 2.892-6.5 4.673l-2.892 2.918c-.822 1.06-1.764 2.124-2.45 3.214-2.97 4.362-4.825 8.75-6.49 12.667-1.66 3.937-3.17 7.528-4.93 10.2-1.738 2.78-3.605 4.307-5.854 5.337-2.287.966-5.443 1.266-9.166 1.134-3.76-.145-7.987-.684-12.706-.86-4.66-.188-10.225.132-15.714 2.365-2.714 1.108-5.234 2.688-7.393 4.466-2.18 1.782-3.954 3.765-5.528 5.735-3.136 3.97-5.362 7.936-7.503 11.538-2.123 3.647-4.07 6.66-6.463 9.706-10.185 12.98-25.064 22.88-39.813 33.577L46.66 389.2c-10.428 7.576-21.732 16-30.455 23.34-13.534 11.387-11.72 16.042 2.015 9.658 3.805-1.768 7.992-3.464 12.668-6.547 14.492-9.55 29.38-20.702 44.156-30.23 10.068-6.494 20.84-14.115 31.313-21.363 9.863-6.85 20.104-13.878 29.3-22.922 4.564-4.514 8.88-9.573 12.465-15.155 3.495-5.46 6.217-10.554 9.296-14.206 1.256-1.497 2.525-2.7 3.814-3.608 1.29-.927 2.587-1.468 4.17-1.892.75-.25 1.667-.345 2.547-.5.97-.066 1.887-.198 2.967-.184 2.058-.068 4.387.08 6.824.222 4.888.282 10.5.864 16.895-.247 3.2-.573 6.544-1.802 9.563-3.598 3.026-1.826 5.52-4.314 7.495-6.855 2.42-3.16 4.12-6.416 5.56-9.476 1.434-3.065 2.61-5.992 3.76-8.646 1.776-4.053 3.534-7.514 5.94-9.854 2.364-2.492 5.532-4.4 9.322-5.886 3.783-1.494 8.092-2.567 12.626-3.616 4.542-1.06 9.33-2.058 14.267-3.625 4.91-1.56 10.038-3.72 14.66-7.143 4.645-3.402 8.252-7.797 11.06-12.17 5.604-8.796 8.875-17.756 13.563-24.818 1.786-2.634 3.675-5.097 5.9-6.926.5-.537 1.144-.857 1.702-1.307l.86-.637.915-.55c1.247-.706 2.566-1.354 4.007-1.88 5.737-2.183 12.62-3.02 19.752-4.2 3.535-.6 7.185-1.253 10.926-2.313 3.726-1.064 7.594-2.57 11.176-4.988a28.92 28.92 0 0 0 4.93-4.292 26.7 26.7 0 0 0 3.693-5.37c2-3.816 2.964-7.675 3.7-11.282.726-3.617 1.202-7.068 1.886-10.252.67-3.18 1.573-6.08 3.027-8.194.376-.508.71-1.073 1.176-1.463l.635-.67.753-.54c.958-.8 2.09-1.275 3.403-1.657 2.617-.765 5.884-.817 9.45-.877 2.248-.048 4.64-.1 7.16-.493 2.5-.356 5.188-1.176 7.534-2.44 2.368-1.25 4.45-2.897 6.226-4.69 1.772-1.804 3.254-3.746 4.597-5.7 2.683-3.92 4.77-7.923 6.986-11.64 1.077-1.884 2.32-3.528 3.47-5.306l2.937-3.72 1.07-1.165c11.23-12.657 27.588-20.697 44.443-22.42 2.152-.153 4.262-.458 6.384-.52 2.124-.198 4.24-.135 6.387-.087-1.57-.49-3.1-1.1-4.722-1.5-1.622-.363-3.328-.877-5.23-1.088-1.11-.13-4.188.04-6.344.346 2.58-.455 5.376-.487 7.758-.746l4.88-.273 4.792.014c-6.654-1.494-13.616-1.965-20.708-1.34-.266.03-1.694.723-2.92 1.084-1.71.44-3.675 1.15-5.523 1.738-2.79 1.412-5.428 2.913-8.518 4.69l-1.196.647-1.22.736a81.78 81.78 0 0 1-2.65 1.506c-.94.5-1.872 1.14-2.907 1.726-1.032.602-2.13 1.216-3.24 1.955zm-150.34 124.882c1.15-2.542 2.616-5.32 4.1-7.944.3-.5.726-.87 1.092-1.3-1.302 2.403-2.413 4.866-3.566 7.342l-2.014 4.258c-.573 1.312-1.062 2.63-1.76 3.977-2.515 4.895-5.42 9.727-9.338 13.765-.125-.042-.384-.094-.353-.13 4.312-4.48 7.448-9.877 10.206-15.403.398-.795.926-1.602 1.387-2.407.062-.706-.195-1.186.247-2.16zm77.038-61.24a51.613 51.613 0 0 1 1.295-4.73c-.28 1.676-.297 3.376-.64 5.023-.987 4.8-1.768 9.693-3.56 14.347-.96 2.3-2.136 4.532-3.753 6.45-1.6 1.925-3.553 3.548-5.694 4.825-4.308 2.57-9.202 3.812-14.035 4.7-4.855.885-9.747 1.412-14.582 2.223-7.005 1.18-14.174 2.98-19.792 7.4-.568.37-1.082.803-1.61 1.223l-1.604 1.254 1.42-1.485c.473-.5.953-1 1.536-1.386l2.17-1.577c.773-.45 1.53-.934 2.337-1.32 1.587-.83 3.25-1.502 4.943-2.076 3.384-1.162 6.886-1.892 10.368-2.538 1.942-.356 3.962-1.048 5.256-1.54.69-.26-.1-.47-.237-.7 2.252-.068 4.795-.217 6.63-.198 1.622.018 2.463.26 3.66.376a64.455 64.455 0 0 0 4.754-1.981c.8-.445 1.588-.884 2.342-1.37.383-.055.766-.116 1.14-.197-1.2.594-2.436 1.104-3.702 1.59 2.68.13 5.843-.838 8.672-2.66 2.86-1.803 5.184-4.477 6.9-7.12l-.95-.243.697-1.18c.078.5.147 1.016.206 1.548 1.787-2.705 2.9-5.824 3.738-8.992.83-3.176 1.405-6.434 2.106-9.673zm19.8-18.576c-2.732.05-5.507.24-8.08 1.194-2.588.895-4.848 2.643-6.537 4.8 1.796-2.516 4.404-4.516 7.403-5.503 3.005-1.002 6.197-1.18 9.3-1.288.952-.03 1.972-.01 2.944 0 3.38.008 6.815-.065 9.987-1.254-3.392 1.626-7.3 1.96-10.542 2.218-2.01-.088-3.22-.18-4.484-.167zM243.042 252.34l11.567-2.925c3.347-.874 6.693-1.853 9.93-3.1 1.92-.8 3.855-1.614 5.646-2.685-1.547 1.165-3.01 2.114-5.013 3.074-3.113 1.306-6.674 2.39-11.44 3.578l-10.69 2.057zM412.78 126.167c1.804-3.166 3.23-6.4 5.024-9.835.455-.844 1.685-2.283 2.666-3.383-1.527 2.83-2.763 5.755-4.365 9.127a84.25 84.25 0 0 1-3.325 4.09zM204.042 287.58c1.23-1.957 2.2-4.407 3.2-6.385 1.8-3.57 3.52-7.102 5.55-10.74l-1.355 3.606c-2.557 5.293-4.607 9.9-7.405 13.52zm82.188-66.888c1.27-2.988 2.33-5.97 3.937-9.136.75-1.53 2.317-3.347 3.585-4.988-.745 1.3-1.428 2.638-2.083 3.9l-1.696 3.507-3.743 6.727zm-2.064-2.295c-2.013 4.075-4.005 7.967-6.387 11.35-.585.892-1.44 1.558-2.145 2.336 1.837-2.347 3.403-5.1 4.752-7.576a164.6 164.6 0 0 0 3.78-6.111zm-76.424 67.556c.48-1.043.825-2.246 1.306-3.2 1.866-3.777 3.503-7.72 5.475-11.568-.958 2.188-1.83 4.398-3.01 7.435-.977 2.1-2.256 4.8-3.772 7.323zm100.143-93.906c2.23-1.35 4.615-2.552 6.98-3.268 2.647-.804 5.24-1.12 7.8-1.447-2.286.554-4.583 1.186-6.982 2.038-2.87.687-5.375 1.534-7.808 2.677zm87.14-58.45c1.394-.233 2.686-.6 3.77-.957 1.894-.574 3.696-1.43 5.398-2.813-1.195 1.135-2.45 2.12-4.165 2.95-1.44.516-3.097.747-5.003.822zm-53.5 47.36c.708-.244 1.503-.676 2-.773 3.65-.782 6.82-1.88 9.325-3.634-1.168 1.005-2.426 1.965-4.934 3.126-1.635.498-3.944.97-6.4 1.28zM272.43 238.51c-.937.607-1.92.997-2.88 1.45 1.438-1.096 2.817-2.154 4.117-3.437.36-.334.813-.604 1.393-1.152l1.07-.926a12.07 12.07 0 0 0 1.43-1.376c-.56.833-1.14 1.436-1.622 2-.5.552-.884 1.106-1.32 1.48-.85.778-1.485 1.418-2.187 1.952zm13.78-24.652c.74-1.62 1.515-3.32 2.396-4.93.436-.79.958-1.568 1.456-2.33a40.553 40.553 0 0 1 1.587-2.278c-.52.835-.972 1.673-1.422 2.535s-.956 1.752-1.4 2.678l-2.626 4.324zm141.963-112.635c.748-.862 1.515-1.682 2.282-2.53s1.563-1.69 2.502-2.45c.94-.78 2.328-1.594 3.568-2.292-1.152 1.008-2.2 2.13-3.487 3.36-1.852 1.358-3.34 2.653-4.865 3.91zM119.778 341.7c-2.04 1.52-3.957 2.697-5.952 3.972.996-.85 2.045-1.803 2.975-2.528 2.036-1.55 4.015-2.985 7.4-5.784-2.43 2.498-3.622 3.737-4.433 4.34zm209.06-155.692c1.22-.292 2.474-.684 3.624-.832 1.266-.163 2.434-.106 3.637-.154l-3.835.95-3.427.035zm-62.345 53.154c.66-.356 1.335-.683 2.02-1.003l1.874-1.14c-.678.535-1.21 1.196-2.047 1.656l-2.252 1.23-2.464 1.037-.28-.15 1.595-.818c.54-.26 1.066-.522 1.554-.81zm6.186-2.313c-.43.367-.928.573-1.452.76.665-.41 1.164-1.03 1.755-1.526l.863-.78c.276-.276.534-.587.806-.875.34-.414.886-.65 2-1.743-.824 1.1-1.6 1.81-2.185 2.525-.62.682-1.232 1.128-1.797 1.638zm-128.976 82.097c-.69 1.306-1.377 2.7-2.15 3.87-.727 1.052-1.527 1.855-2.292 2.757.84-1.316 1.72-2.604 2.843-4.543l1.6-2.083zM353.057 179.93c-2.073 1.414-4.436 2.55-7.023 3.373-.9.284-1.904.426-2.878.594a54.092 54.092 0 0 0 2.704-.91c3.304-.962 5.332-1.92 7.197-3.057zm-56.627 17.962c.594-.775 1.092-1.657 1.804-2.32 1.337-1.183 2.615-2.36 4.157-3.3-1.093.804-2.027 1.743-3.264 2.998-.91.72-1.785 1.678-2.697 2.622zM130.265 336.475c-1.407 1.55-2.837 3.06-4.374 4.525-.565.525-1.328.998-1.998 1.492l3.503-3.7c1.122-.855 1.983-1.6 2.87-2.327zm232.862-167.993c-.222.812-.67 1.43-1.03 2.115.43-1.23.704-2.524 1.063-3.802.194-.895.535-1.746 1.322-4.87-.636 3.817-.956 5.225-1.356 6.557zm1.345-20.086l-.908 2.476-.758 2.4c.048-.387.047-.767.152-1.164l.383-1.434.552-1.64c.188-.592.43-1.248.777-2.002.335-.75.65-1.584 1.23-2.533-.6 1.215-.768 2.02-.987 2.608l-.44 1.28zm-6.295 23.275c-.203.474-.502.796-.77 1.158.434-.692.704-1.56 1.08-2.342l.703-1.272c-.378 1.17-.71 1.815-1.012 2.456zm54.225-47.3c.085.022-.485 1.086-.788 1.654-.493.48-1.128 1.13-1.453 1.282-.123.065.47-.927.944-1.983.606-.432 1.13-1 1.297-.952zm17.972-23.525c-.615.524-1.403 1.045-1.593 1.105-.145.01.66-1.044 1.032-1.363.592-.524 1.163-.846 2.024-1.45-.606.716-1.116 1.417-1.463 1.71zm-95.498 81.436c-.74.053-1.158-.048-1.727-.088.8-.157 1.646-.372 2.38-.462.594-.08 1.074-.004 1.884 0-1.115.256-2.036.517-2.537.55zm-101.802 69.7l1.847-.703 1.862-.582c-.33.18-.667.428-.986.522-1.247.337-2.473.8-3.867 1.26.45-.198.785-.358 1.144-.495zm45.155-18.165c-.473.63-1.052 1.11-1.604 1.63.534-.6 1.04-1.218 1.527-1.88.462-.64 1.068-1.138 2.05-2.494-.925 1.475-1.482 2.087-1.973 2.745zm103.995-97.804a21.67 21.67 0 0 1 2.04-.678c.033-.02 1.337.013 1.3.04-.24.183-.663.35-1.074.565-1.15.006-1.703.025-2.266.072zm-160.15 121.702c-.59.4-.968.442-1.38.722.424-.486 1.002-.946 1.4-1.256a23.39 23.39 0 0 1 2.476-1.476c-1.352 1.005-2.1 1.762-2.506 2zm97.52-71.64a37.287 37.287 0 0 1 2.722-.671c.825-.142 1.66-.218 2.48-.3l-2.468.6-2.735.37zm-20.528 13.564a2.97 2.97 0 0 1-1.064.712c-.053.022.63-.93.95-1.26.55-.56 1.026-1.02 2.065-1.765-1.034 1.03-1.464 1.843-1.95 2.313zm-55.317 46.367c.54-.168 1.05-.35 1.626-.5.393-.097.873-.145 1.315-.215l-2.056.708-.885.006zm-251.775 69.08c1.114-1.394 2.146-2.374 3.187-3.568-.736 1.31-1.396 2.537-2.293 3.914-1.804 2.68-3.783 5.346-6.047 7.746-2.213 2.458-4.677 4.708-7.307 6.783 1.27-.8 2.425-1.738 3.652-2.6 1.15-.954 2.334-1.888 3.443-2.903-.992 1.032-2.117 1.994-3.17 2.992l-3.232 2.697c-1.253.942-2.355 1.95-3.583 2.77l-1.798 1.286c-.606.42-1.26.783-1.904 1.18 2.817-1.145 5.392-2.537 8-4.27 4.195-2.905 8.04-6.45 11.388-10.39l2.713-3.432 2.45-3.39 4.707-6.747c3.1-4.458 6.16-8.8 9.5-12.7 1.942-2.32 3.52-4.642 5.495-6.754 1.114-.502 2.173-1.063 3.3-1.424l1.64-.595c.554-.164 1.115-.29 1.658-.437l-.16.055c2.7-1.454 5.508-2.473 8.495-2.977 3.018-.523 6.317-.63 9.782-.64 3.47-.015 7.12.087 10.994-.117 3.86-.215 8.03-.735 12.216-2.3.975-.32 1.924-.796 2.87-1.273.965-.435 1.853-1.04 2.75-1.63.924-.554 1.72-1.277 2.53-1.98l1.21-1.067c.383-.37.708-.776 1.063-1.167 2.85-3.13 4.813-6.687 6.27-10.07 2.95-6.8 4.56-13.305 7.074-18.5 1.026-2.15 2.226-3.955 3.5-5.423 1.363-1.342 2.718-2.47 4.317-3.15 3.135-1.4 7.246-1.647 12.2-1.417 4.8.19 10.143.935 16.13 1.03 3 .02 6.216-.13 9.6-.825 3.37-.723 6.95-2.006 10.082-4.16a27.438 27.438 0 0 0 7.742-7.944c1.926-3.015 3.212-6.122 4.178-9.092 1.907-5.962 2.68-11.482 3.72-16.486.84-4.17 1.82-8.014 3.263-10.82 1.438-2.814 3.158-4.392 5.5-5.392 1.173-.463 2.598-.747 4.25-.892 1.637-.156 3.588-.073 5.637.037 4.142.22 8.893.9 14.418.53 1.366-.07 2.81-.278 4.25-.522 1.455-.324 2.956-.644 4.377-1.18 2.87-1.003 5.583-2.48 7.942-4.224 4.752-3.522 8.06-7.837 10.797-11.912 2.725-4.107 4.933-8.118 7.158-11.808 2.207-3.692 4.428-7.05 6.85-9.687 1.2-1.318 2.46-2.445 3.756-3.36a16.15 16.15 0 0 1 1.996-1.213c.734-.3 1.392-.673 2.158-.944 3.027-1.114 6.737-1.593 10.82-1.74 4.1-.157 8.526.006 13.306-.082 4.766-.1 10.002-.417 15.5-2.17 1.37-.475 2.74-.9 4.083-1.615l2-1.007c.666-.342 1.276-.82 1.912-1.232 2.58-1.613 4.832-3.8 6.655-6.06 3.662-4.57 5.785-9.42 7.54-13.883 1.736-4.483 3.083-8.736 4.62-12.46 1.512-3.728 3.266-6.826 5.213-8.632 1.043-.977 2.115-1.687 3.417-2.138 1.216-.45 2.694-.646 4.396-.695 1.734-.001 3.743.235 5.867.563l7.003 1.27c2.56.413 5.2.867 8.264.943 3.027.045 6.354-.126 9.766-1.258.845-.214 1.666-.643 2.5-.977l1.227-.552c.4-.203.773-.453 1.157-.684.76-.475 1.525-.948 2.254-1.463a75.745 75.745 0 0 0 2.02-1.743c2.52-2.423 4.52-5.24 5.83-7.904 1.394-2.684 2.39-5.296 3.22-7.73.86-2.478 1.547-4.754 2.274-6.94 1.42-4.283 2.938-8.026 4.9-10.307 1.816-2.323 4.537-3.95 8.123-5.112 3.567-1.146 7.776-1.7 12.22-2 6.5-.466 14.27-.48 22.398-2.96 2.017-.646 4.033-1.406 5.97-2.413.487-.226.958-.518 1.432-.78.474-.273.93-.52 1.44-.878l1.468-1 1.34-1.102c3.484-2.988 5.858-6.613 7.417-10.372 2.377-5.894 1.76-11.612.017-14.9C438.52 1.3 436.44.314 435.574.457c-.97.17-1.04 1.494-.957 3.535.047 2.06-.005 4.96-1.427 8.217-1.576 3.596-4.603 6.682-8.45 9.268l-1.155.67-1.3.636-1.366.568-1.414.5c-1.918.62-3.963 1.06-6.097 1.376-4.274.635-8.875.76-13.694.96-4.863.197-10 .587-15.168 1.852-5.135 1.25-10.538 3.527-14.893 7.586-2.94 2.77-5.168 6.203-6.775 9.587-1.63 3.398-2.782 6.79-3.877 9.98-1.085 3.187-2.126 6.183-3.38 8.665-1.256 2.492-2.67 4.335-4.3 5.42-1.572 1.068-3.245 1.6-5.443 1.726-2.2.125-4.837-.23-7.73-.79-2.905-.554-6.057-1.305-9.572-1.855-3.502-.53-7.473-.897-11.82-.172-.54.097-1.076.16-1.62.297l-1.635.472c-.54.17-1.093.32-1.623.518l-1.563.664c-2.057.962-4.03 2.197-5.75 3.655a30.532 30.532 0 0 0-4.445 4.745c-1.245 1.667-2.27 3.36-3.18 5.04-1.784 3.355-3.066 6.612-4.228 9.7l-3.278 8.712c-1.784 4.47-3.8 8.187-6.233 10.504-1.212 1.14-2.66 1.994-4.227 2.797-1.723.634-3.54 1.268-5.74 1.555-4.3.71-9.346.7-14.798.77-5.442.117-11.388.265-17.686 1.947-1.94.626-3.888 1.186-5.803 2.15-1.945.815-3.777 1.957-5.494 3.155-3.386 2.465-6.195 5.392-8.448 8.367-3.47 4.555-6.033 9.183-8.516 13.477-2.466 4.3-4.842 8.31-7.507 11.456-2.67 3.174-5.497 5.263-8.8 6.182-3.22 1.004-7.64.808-12.557.467-2.488-.172-5.154-.362-8.022-.34-2.863.033-5.972.257-9.197 1.18-3.226.934-6.398 2.568-9.03 4.785-2.677 2.22-4.7 5.028-6.155 7.803-2.904 5.626-3.937 11.096-4.917 16.126-.938 5.036-1.68 9.802-2.972 13.944-.97 3.155-2.298 5.84-4.034 7.796-1.77 1.93-3.94 3.25-6.697 3.977-2.748.75-6.072.876-9.59.78-3.528-.094-7.294-.43-11.242-.574-3.894-.135-8.052-.12-12.416.704-4.33.817-8.967 2.713-12.512 5.888-3.62 3.086-6.064 7.013-7.777 10.774-1.728 3.8-2.867 7.52-3.957 11.077-2.123 7.047-4.206 13.715-8.452 17.8-2.074 2.064-4.73 3.44-7.806 4.292-3.074.86-6.542 1.15-10.157 1.287-4.556.18-9.358.102-14.377.68a37.89 37.89 0 0 0-14.78 4.664c-4.543 2.554-8.43 5.938-11.8 9.567-3.387 3.64-6.312 7.54-9.074 11.452l-8.014 11.668-2.014 2.825-2.04 2.634-2.198 2.512-2.344 2.382c-3.216 3.08-6.784 5.804-10.612 7.933-3.818 2.125-7.948 3.618-12.052 3.963-4.135.352-8.195-.12-11.84-2.244 2.152 2.45 4.895 4.276 8.82 5.28 1.144.398 4.43.137 6.698-.275-1.364.247-2.774.53-4.185.532-1.405.15-2.774-.013-4.053-.06-3.56-.326-6.795-1.35-9.844-3.13 2.83 2.392 6.336 4.152 10.153 4.896 3.81.77 7.84.582 11.648-.33.14-.042.612-.225 1.162-.56.552-.33 1.222-.723 1.85-1.025.885-.388 1.788-.908 2.722-1.417l1.4-.765 1.335-.858c2.63-2.076 4.876-4.42 7.53-7.103 2.64-2.716 5.63-5.867 9.192-10.26zM153.448 195.4a144.838 144.838 0 0 1-1.75 9.278c-.135.587-.45 1.1-.68 1.66.555-2.84.947-5.67 1.374-8.525.242-1.612.526-3.277.833-4.908.21-1.5.4-2.972.796-4.533.745-2.82 1.688-5.642 3.177-8.22.732-1.295 1.627-2.498 2.624-3.617 1.043-1.07 2.16-2.1 3.448-2.882.117.068.37.173.328.2-2.802 1.75-4.99 4.337-6.49 7.23-1.528 2.894-2.455 6.052-3.207 9.228-.204.916-.526 1.882-.766 2.835.1.732.49 1.142.314 2.255zm-76.112 62.695c-.304.817-.685 1.6-1.07 2.375-.376.78-.76 1.556-1.217 2.296.365-.82.598-1.693.853-2.55l.844-2.53c1.896-4.816 3.25-9.854 5.204-14.714.922-2.45 2.147-4.79 3.513-7.04l1.17-1.6c.198-.264.385-.536.59-.794l.684-.72 1.376-1.434 1.564-1.23c2.087-1.64 4.565-2.746 7.114-3.417 2.555-.685 5.2-.967 7.808-1.025 5.246-.127 10.434.514 15.613.78 3.776.184 7.586.21 11.27-.534 3.677-.722 7.173-2.363 9.9-4.93 1.022-.982 2.072-1.947 2.944-3.094-.737 1.245-1.587 2.432-2.647 3.464-2.756 2.626-6.338 4.296-10.052 5.025-3.726.75-7.535.732-11.277.605-2.088-.076-4.336.148-5.778.346-.77.104.01.48.09.734l-6.883-1.16c-1.674-.316-2.508-.682-3.743-.987-1.793.368-3.55.84-5.214 1.463-.875.372-1.713.806-2.507 1.272-.4.063-.788.115-1.182.192 1.247-.58 2.55-1.1 3.918-1.473-2.766-.33-6.254.662-9 2.95-2.838 2.187-4.848 5.36-6.418 8.328l1.004.153c-.265.415-.477.868-.7 1.32-.095-.53-.216-1.082-.262-1.605-3.28 6.1-4.87 13.015-7.5 19.535zm-24.274 17.47c2.898-.174 5.798-.55 8.584-1.395 2.776-.857 5.41-2.243 7.602-4.17-2.385 2.27-5.4 3.86-8.56 4.83-3.18.98-6.505 1.397-9.813 1.63-1.01.074-2.094.084-3.128.077-3.622.003-7.222-.104-10.818.068 3.952-.524 7.963-.73 11.395-1.04 2.118.045 3.403.092 4.738 0zM202.33 168.83a21.986 21.986 0 0 1-5.772 2.266 31.99 31.99 0 0 1-6.236.72c-3.658.097-7.338-.276-11.006-.422-2.206-.07-4.427-.145-6.62.1 1.998-.402 3.837-.692 6.173-.7 1.78.023 3.645.13 5.696.247 2.053.106 4.307.25 6.85.12a29.695 29.695 0 0 0 5.16-.41 21.595 21.595 0 0 0 5.755-1.912zM20.942 281.53c-3.16 2.173-5.823 4.765-8.484 7.7-.65.74-2.248 1.865-3.345 2.914 1.94-2.705 4.035-5.318 6.913-8.036.95-.64 1.843-1.075 2.637-1.497.787-.432 1.514-.8 2.28-1.09zm221.284-151.26c-.562.233-1.186.384-1.714.7l-1.617.862c-1.07.556-2.007 1.252-2.908 1.82-3.17 2.124-5.92 4.774-8.47 7.922a56.03 56.03 0 0 1 2.067-3.145c1.938-2.142 3.917-3.938 6.017-5.287 1.063-.653 2.095-1.284 3.226-1.706l1.664-.664c.543-.236 1.163-.328 1.735-.503zm-86.176 62.2c-.5 3.334-.688 6.634-1.328 10.312-.31 1.774-1.266 4.1-2.067 6.17.73-3.133 1.202-6.22 1.57-8.644l1.825-7.84zm2.583 1.728c.896-4.537 2.045-8.765 4.04-11.794.52-.752 1.228-1.364 1.9-1.878-.832.9-1.55 1.975-2.164 3.153-.607 1.184-1.1 2.497-1.506 3.772-1.098 2.6-1.695 4.664-2.28 6.747zm79.52-64.785c-.523.29-1.048.6-1.523 1l-1.412 1.004c-3.616 2.357-6.633 5.594-9.28 9.154 1.364-2.038 2.784-4.05 5.12-6.488 1.764-1.62 4.258-3.5 7.095-4.66zM140.29 226.97c-2.504 1.5-5.332 2.555-8.023 2.976-3.02.47-5.838.25-8.597.038 2.512-.06 5.077-.227 7.807-.727 3.2-.292 6.097-1 8.813-2.287zm-96.87 53.94c-1.716.116-3.4.332-5.008.407-2.722.1-5.3.253-7.696.752 1.77-.567 3.73-.878 6.172-1.22a118.3 118.3 0 0 1 6.533.06zm59.902-48.36c-.7.153-1.498.5-1.97.554-1.732.224-3.283.614-4.7 1.212a8.266 8.266 0 0 0-1.032.49c-.353.15-.653.4-.968.607l-.964.64c-.325.218-.585.537-.9.797.274-.3.5-.65.813-.9l.97-.83c.652-.638 1.53-1.143 2.668-1.73 1.52-.472 3.657-.845 6.062-.83zm65.243-57.126c.494-.204 1.062-.2 1.582-.256s1.067-.02 1.613-.02c-.922.14-1.735.446-2.573.685-.774.35-1.586.6-2.307 1.044a6.504 6.504 0 0 1-.67.293l-.84.42c-.664.315-1.484.815-2.592 1.723 1.194-1.37 2.312-2.132 3.232-2.734l1.313-.7c.43-.167.838-.305 1.242-.446zm-10.688 23.832c-.278 1.84-.506 3.76-.924 5.667-.407 1.873-1.002 3.73-1.655 5.633.5-2.022.907-4.012 1.268-6.17l1.31-5.13zM1.528 304.365c-1.193 2.002-2.26 3.994-3.616 6.063-.68 1.045-1.875 2.215-2.836 3.325l2.475-4.356 3.977-5.032zM329.974 78.918c2.605.615 4.906 1.4 7.5 2.02-1.48-.173-3.01-.358-4.277-.624l-4.16-.943c-1.505-.325-3.224-.7-5.377-.93 1.72.01 3.047.08 4.07.177 1.01.072 1.726.175 2.243.3zm-212.99 151.015c-1.323.015-2.69.128-3.898.03-1.324-.1-2.506-.4-3.735-.572 1.218-.08 2.457-.123 4.11-.166l3.524.708zm57.285-52.854c-1.564.07-3.03.14-4.352.427.383-.133.756-.282 1.14-.432.41-.115.843-.21 1.3-.288 1.67-.217 3.52-.24 5.512-.124l.214.254c-1.334.008-2.606.123-3.813.163zm-6.43-.224c.506-.16 1.023-.138 1.515-.205-1.362.512-2.606 1.085-3.75 1.9-.355.298-.87.422-1.974 1.24 1.667-1.715 2.964-2.367 4.21-2.945zM301.91 90.5c.548-1.472 1.13-3.027 1.878-4.324.667-1.19 1.498-2.083 2.323-3.032-.95 1.362-1.768 2.81-2.782 4.96-.375.6-.92 1.488-1.42 2.397zM92.254 233.486c1.89-1.76 4.23-2.953 6.857-3.66.9-.252 1.935-.307 2.93-.377-1.294.244-2.516.602-2.773.7-1.67.386-3 .873-4.1 1.444-.58.25-1.06.595-1.565.87l-1.348 1.023zm59.8-14.755c-.46.994-.87 2.07-1.54 2.97-1.136 1.67-2.624 3.133-4.2 4.463 1.12-1.08 2.158-2.247 3.318-3.898a30.802 30.802 0 0 0 2.412-3.535zM318.478 75.113c1.096-.3 2.218-.3 3.338-.44 1.116.007 2.254-.073 3.38.052.823.065 1.744.3 2.6.52a39.769 39.769 0 0 0-5.392-.078c-.742-.118-1.416-.07-2.06-.107l-.947-.024-.917.076zm-236.27 171.67c.32-.837.752-1.527 1.16-2.26l-1.332 4.072c-.308.93-.703 1.845-1.934 5.073 1.195-3.97 1.58-5.485 2.107-6.885zm-4.966 21.082c.27-.4.562-.8.814-1.186l.702-1.195c.457-.795.97-1.587 1.335-2.4-.125.397-.172.795-.396 1.194-1.02 1.85-1.862 3.837-4.813 7.218 1.683-2.192 1.89-3.035 2.358-3.64zm10.164-24.734c.265-.514.553-.95.827-1.417-.407.918-.812 1.824-1.182 2.818-.147.366-.4.695-.818 1.45.52-1.266.82-2.1 1.173-2.85zm-66.953 40.2c-.086-.083.95-.76 1.5-1.167.683-.216 1.548-.583 1.936-.544.077.01-.157.138-.51.397l-1.286 1.006c-.752.144-1.51.39-1.63.308zm-21.026 21.9c.5-.672 1.177-1.38 1.38-1.46.125-.048-.482 1.18-.776 1.592-.48.66-.98 1.114-1.716 1.926.455-.858.825-1.683 1.11-2.058zm110.623-72.9c.755.096 1.15.272 1.716.43-.842-.006-1.733.03-2.468-.01-.6-.038-1.07-.2-1.863-.337 1.128-.073 2.117-.137 2.615-.083zm102.154-67.46a35.3 35.3 0 0 1-3.008 3.087c.268-.323.474-.74.747-.99a46.356 46.356 0 0 0 3.081-3.156c-.322.418-.554.74-.82 1.058zm-50.04 13.682c.55-.506 1.1-.96 1.728-1.345-.608.476-1.115 1.06-1.668 1.596a17.66 17.66 0 0 1-.837.892c-.3.38-.7.8-1.166 1.474.88-1.434 1.414-2.038 1.943-2.617zM57.416 278.276c-.67.26-1.328.496-2.083.748-.03.025-1.403.062-1.365.023.243-.2.685-.375 1.103-.618l2.345-.153zM219.74 154.66c.407-.56.688-.744 1.023-1.1-.283.54-.58 1.184-.857 1.593-.423.633-.826 1.105-1.7 2.224.83-1.44 1.264-2.346 1.544-2.727zm-93.1 77.21c-1.017.055-2.037.127-3.024.097-.906-.025-1.8-.142-2.66-.237a93.57 93.57 0 0 0 2.717-.057c1.102.1 2.033.15 2.967.197zm22.445-14.198a3.64 3.64 0 0 1 .907-1.043c.036-.04-.4 1.16-.702 1.577-.46.734-.926 1.315-1.85 2.367.873-1.355 1.242-2.28 1.645-2.9zm53.55-42.318c-.65.332-1.303.592-2.027.866-.502.206-1.145.27-1.72.4l1.334-.47 1.303-.58c.482-.078.802-.132 1.11-.216zm-129.072-23.58c-.472.325-.908.54-1.385.817.207-.453.32-.96.654-1.395 1.22-1.767 2.838-3.328 4.723-4.583-.928.376-1.872.775-2.76 1.296.75-.636 1.648-1.15 2.385-1.706.89-.606 1.66-1.278 2.597-1.803-1.06.133-2.09.328-3.132.733-1.672.715-3.256 1.745-4.668 2.967-1.574 1.4-2.97 3.076-4.045 4.984-1.098 1.9-1.77 4.097-1.987 6.308-.068.655.02 1.296.228 1.905.192.6.393 1.196.645 1.758-.225.513-.47 1.057-.658 1.6a32.29 32.29 0 0 0-.493 1.712l.01-.085c1.368 5.743 5.024 10.688 10.392 13.643 2.482 1.358 5.47 2.166 8.443 2.223 2.92.067 5.792-.513 8.395-1.47 4.303-1.6 8.27-3.795 11.125-7.397a25.37 25.37 0 0 0 3.446-5.766c.893-2.105 1.533-4.33 1.84-6.56.657-4.476.18-8.96-1.104-13.076-2.2-6.87-6.638-12.975-12.993-17-3.16-1.996-6.858-3.4-10.618-3.935-3.758-.557-7.527-.33-11.072.505-7.085 1.685-13.45 5.677-17.96 11.618-2.24 2.958-3.965 6.466-4.867 10.193-.91 3.718-1 7.534-.46 11.157 1.216 7.756 5.1 14.826 11.3 19.907.75.654 1.583 1.225 2.433 1.777.824.583 1.728 1.062 2.64 1.53.9.5 1.86.87 2.827 1.243.917.396 2.043.682 3.134.955 4.38.992 8.64.658 12.67-.465 2.856-.837 5.75-2.244 8.24-4.345 2.488-2.07 4.526-4.95 5.415-7.956.688-2.344.45-4.316-.115-5.533-.607-1.244-1.42-1.822-2.28-1.926s-1.784.245-2.69.795c-.458.275-.9.6-1.335.946-.495.34-.978.697-1.416 1.066-1.18.795-2.46 1.117-3.45 1.83-1.495 1.163-3.43 2.148-5.532 2.702-2.1.53-4.405.48-6.147-.3-.597-.3-1.082-.513-1.726-.918-.625-.315-1.21-.738-1.807-1.133-1.144-.88-2.3-1.795-3.188-2.987-1.752-2.138-2.864-4.828-3.4-7.43-.462-2.635-.368-5.2.313-7.358.523-1.788 1.313-3.57 2.58-5.285 1.28-1.686 3.004-3.242 5.016-4.32 1.233-.696 2.652-.966 3.972-1.274 4.128-.934 8.05-.19 11.453 2.423 3.402 2.565 5.908 6.894 6.463 11.25.257 1.663.115 3.324-.26 4.872-.336 1.55-.97 3.015-1.778 4.447-1.6 2.79-4.116 5.224-6.998 6.173-.717.273-1.457.39-2.2.48-.37.03-.72.005-1.092.028-.365-.056-.74-.075-1.114-.143-1.5-.297-3.03-1.044-4.34-2.142-1.677-1.36-2.94-3.294-3.612-5.32-.33-1.022-.46-2.067-.48-3.102.068-1.022.2-2.05.593-3.03 1.47-3.982 5.902-7.2 10.353-7.558 1.11-.056 2.244-.424 3.446-.347-.635-.957-1.404-1.935-2.598-2.668-.175-.104-.512-.147-.896-.172-.382-.014-.806.046-1.162.04.844-.154 1.75-.082 2.537-.198a27.065 27.065 0 0 0 1.642-.148l1.667-.004c-2.027-1.32-4.56-2.133-7.262-2.26-.104-.003-.58.494-1.004.693l-1.894.903-1.2 1.34c-.37.477-.755.927-1.18 1.37-.808.957-1.825 1.785-3.216 2.903zm28.146-1.584a11.53 11.53 0 0 1 .77 2.883c.03.187-.12.397-.2.593-.267-.87-.552-1.716-.926-2.54-.2-.466-.338-.968-.58-1.425-.26-.403-.562-.77-.76-1.2-.4-.8-.836-1.564-1.283-2.323-.5-.724-.935-1.497-1.52-2.16.1-.083.245-.25.254-.24.665.747 1.155 1.62 1.73 2.443.463.884 1.013 1.742 1.37 2.688.114.268.137.592.2.887.322.116.803.068.936.403zm-16.585 26.337c-.543-.012-1.08-.056-1.603-.19.567-.107 1.1-.512 1.628-.5 3.094-.132 6.106-1.315 8.592-3.186 2.52-1.838 4.525-4.348 5.917-7.137.47-1.036.9-2.094 1.17-3.204.126-.555.277-1.105.387-1.662l.227-1.693c.076-.43.2-.853.312-1.287.053.44.227.895.157 1.342l-.216 1.723c-.112.568-.27 1.128-.4 1.692-.268 1.13-.7 2.203-1.14 3.275-.278.573-.224 1.384-.213 1.924.01.3.42.233.65.33-.618.54-1.268 1.162-1.895 1.462-.532.28-1.004.238-1.505.304-.12.61-.273 1.227-.474 1.83-.068.357-.126.738-.223 1.093l-.44.12c.276-.396.514-.82.742-1.242-.6.027-1.086.198-1.542.44-.44.258-.833.605-1.24.97-.776.765-1.616 1.63-2.592 2.087l.52.793c-.154.074-.302.16-.46.224.001-.348-.014-.7-.03-1.058-1.963.958-4.136 1.537-6.33 1.558zm-8.865-3.663c1.3 1.167 2.83 2.12 4.51 2.714-1.965-.436-3.86-1.325-5.526-2.56-.247-.196-.48-.446-.703-.68-.766-.836-1.416-1.76-1.994-2.713.924.863 1.9 1.622 2.797 2.146.39.5.6.844.917 1.093zm11.964-36.497l1.767.7c.586.25 1.132.583 1.704.88.508.244.94.603 1.408.913s.926.646 1.34 1.028c.508.45 1.055.872 1.505 1.385-.568-.336-1.226-.46-1.796-.864-.43-.317-.865-.657-1.38-.994-.506-.348-1.03-.77-1.718-1.112-.357-.265-.76-.634-1.255-.95l-1.576-.985zm-18.166 28.56c-.28-.562-.583-1.127-.778-1.74-.107-.305-.223-.617-.313-.937-.068-.324-.13-.657-.183-1-.076-.344.33-.986.568-1.454.075.56.2 1.104.375 1.654l.257.828.365.838c-.2.727-.22 1.26-.3 1.81zm-.372-31.587c.812-.53 1.748-1.07 2.585-1.31 1.538-.318 3.013-.33 4.495-.268l-1.296.472a34.458 34.458 0 0 0-2.996.402c-.936.235-1.894.38-2.788.703zm33.5 15.16c.336.506.662 1.013.93 1.557.276.542.575 1.097.746 1.717.156.606-.137 1.51-.238 2.248-.316-1.02-.558-2.04-.886-2.806-.192-1.112-.314-1.932-.552-2.715zm2.877-.554a33.84 33.84 0 0 0-2.41-4.943c-.24-.398-.33-.91-.495-1.374l1.203 1.69c.36.573.687 1.145 1.002 1.678.4 1.214.5 2.107.7 2.948zm-34.33-12.97c.334-.233.668-.578 1.024-.686a20.838 20.838 0 0 1 4.308-.677c-.774.202-1.553.367-2.577.77-.78.093-1.766.325-2.756.594zm32.993 26.02c-.006.9-.05 1.83-.27 2.678-.3.932-.86 1.746-1.397 2.53.255-.817.408-1.67.574-2.547.4-.95.813-1.788 1.093-2.662zM70.35 174.16c-.54-.436-1.088-.9-1.48-1.456-.345-.46-.608-.978-.856-1.495a13.829 13.829 0 0 1-.681-1.577c.434.758.997 1.424 1.63 2.25.424.718.833 1.55 1.39 2.28zm31.13.436c-.15.325-.315.77-.507.935-1.406 1.202-2.97 2.166-4.598 2.988.72-.56 1.42-1.144 2.408-2.15.778-.427 1.743-1.073 2.697-1.774zm-2-34.035c-.28-.36-.368-.84-.552-1.274.6.495 1.2.968 1.675 1.6.244.342.445.814.86 2.04-.975-1.283-1.59-1.756-1.983-2.367zm7.396 9.222c.26.667.572 1.338.67 2.052.106.7.1 1.403.082 2.107-.15-.712-.376-1.402-.592-2.174.001-.686-.086-1.33-.16-1.985zm-37.4 4.916c.2-.83.432-1.64.886-2.416.213-.41.85-.655 1.278-.96-.228.53-.5 1.012-.676 1.65l-.813.853-.674.87zm-12.123 12.424l.64 2.67c-.28-.407-.642-.818-.825-1.23-.213-.438-.32-.916-.487-1.453-.147-.548-.36-1.16-.5-1.99.597 1.174 1.103 1.627 1.174 2.003zm44.968 1.297c-.125.463-.22.985-.465 1.356-.265.414-.723.64-1.1.928.17-.43.348-.854.52-1.437.393-.314.736-.567 1.045-.847zm-2.47-31.34c.475.542.865 1.156 1.282 1.737-.347-.262-.722-.464-1.03-.782-.53-.577-1.075-1.183-1.67-1.734l.104-.243c.44.334.95.6 1.316 1.022zm.826 3.225c-.147-.204-.12-.515-.195-.767.47.53.93 1.07 1.36 1.642.14.193.197.467.367 1.15-.657-.978-1.163-1.46-1.532-2.026zm-42.562 15.13c.035.47.175.95.2 1.386 0 .397-.19.76-.295 1.148l-.22-1.705c.068-.215.204-.526.325-.83zM95.53 175.65c.845-.696 1.603-1.464 2.355-2.237.25-.273.62-.468.94-.704l-.674.935a22.122 22.122 0 0 1-2.62 2.006zm12.27-18.785c.084.346.243.706.23 1.047a8.574 8.574 0 0 1-.3 1.837c.013-.47-.025-.937-.093-1.554l.163-1.33zM59 162.343c.28.608.6 1.184.86 1.8.082.228.067.534.098.807-.33-.412-.588-.86-.91-1.385-.02-.472-.047-.845-.046-1.22zm30.136 14.384c.29-.078.6.024.9.042-.448.187-.892.4-1.36.55-.327.064-.68.096-1.838.136 1.34-.36 1.812-.588 2.288-.728zm-7.266 3.94l2.028.373c-.156.053-.313.13-.48.12-.8-.07-1.602-.096-3.1-.48.975-.001 1.285-.057 1.552-.013zm10.348-1.318c.243-.084.484-.107.728-.16-.403.202-.802.417-1.22.6-.16.062-.348.05-.742.05.563-.183.9-.37 1.234-.48zm-23.55-14.56c.08-.03.274.384.415.6-.1.284-.097.64-.207.804-.04.063-.33-.306-.6-.696.167-.332.25-.643.402-.698zm2.183-10.103c-.16.226-.43.447-.567.448-.084.003-.063-.503.028-.65.142-.242.38-.365.708-.585-.1.322-.086.658-.17.788zm32.432 17.448c.232-.227.477-.273.707-.41-.165.32-.324.674-.532.928-.174.208-.413.287-.733.488.247-.452.4-.854.558-1.007zm-17.03-39.817c.448.106.9.18 1.342.35-.147.026-.32.11-.43.07-.44-.128-.865-.293-1.35-.462.172.016.306.015.438.042zm14.332 11.075c-.147-.26-.223-.553-.368-.812a4.58 4.58 0 0 1 .58.746c.155.26.26.55.518 1.13-.374-.54-.58-.792-.73-1.065zm-25.176 32.792a5.898 5.898 0 0 1-.872-.046c-.01-.002-.334-.365-.31-.375.175-.078.4-.11.627-.166.28.3.404.46.554.587zm6.694-44.872c-.233-.067-.33-.222-.5-.34.216-.024.47-.088.64-.06.262.037.467.2.933.397-.572-.014-.925.037-1.083.002zm23.08 34.656c-.1.348-.177.702-.318 1.028-.136.298-.333.562-.517.83l.253-.963c.22-.337.413-.6.583-.895zm-.513-8.927c.024-.196.206-.343.327-.426.026-.018.14.38.123.538-.032.27-.137.497-.268.918-.092-.494-.21-.8-.182-1.03zm-13.258-25.83c.22.06.443.1.665.195.154.065.307.204.458.3l-.897-.18-.226-.326zm94.496-29.998c.338.05.635.3.968.42-.266.192-.524.384-.85.5a10.453 10.453 0 0 1-4.152.524c.6.297 1.224.47 1.867.663-.632-.018-1.294-.075-1.91-.115-.728.01-1.44.053-2.208-.026.593.453 1.185.942 1.904 1.185 1.172.447 2.42.6 3.638.62 2.746.04 5.496-.678 7.87-2.28.712-.447.975-1.447 1.336-2.168.84-.058 1.804-.152 2.694-.426l-.057.03a36.05 36.05 0 0 0 .977-1.298c1.885-2.928 2.706-6.42 2.503-9.682-.2-3.507-1.506-6.676-3.112-9.556-.66-1.213-1.335-2.422-2.127-3.615-.82-1.15-1.81-2.33-3.025-3.164-2.32-1.7-5-2.834-7.71-3.448-2.717-.624-5.48-.76-8.175-.5-4.508.48-8.903 2.034-12.73 4.8-3.8 2.72-7.006 6.932-8.433 11.473-1.538 4.527-1.617 9.228-.7 13.648.468 2.22 1.27 4.363 2.276 6.428 1.08 2.04 2.39 3.995 4.033 5.74 1.775 1.85 3.866 3.5 6.2 4.727a25.862 25.862 0 0 0 7.266 2.446c2.482.394 4.974.44 7.42.166 2.44-.3 4.827-.955 7.11-1.91 3.238-1.35 6.478-3.902 7.98-6.812.604-1.102.724-2.18.52-3.082-.196-.893-.7-1.596-1.385-2.12-1.385-1.048-3.458-1.413-5.32-1.38-1.08.012-2.28-.266-3.048.047-1.203.484-2.296 1.098-3.546 1.456-1.223.36-2.52.615-3.773.278-1.674-.403-3.318-.627-4.676-1.262-2.57-1.245-3.66-3.27-4.713-5.604-.802-1.9-1.876-4.12-1.78-6.41.026-.698.355-1.31.51-1.933a9.377 9.377 0 0 1 1.231-2.588c.57-.798 1.35-1.524 2.25-2.172.895-.66 1.98-1.152 3.105-1.52a11.33 11.33 0 0 1 3.526-.591c1.846-.057 3.507.577 5.022 1.194 1.488.527 2.95 1.565 4.138 3.005 1.155 1.427 1.96 3.246 1.926 4.97a6.171 6.171 0 0 1-.532 2.5c-.586 1.252-2.04 2.4-3.896 2.776-1.803.408-3.786.105-4.87-.798-.363-.257-.965-.347-1.466-.726a6.92 6.92 0 0 0-.671 1.166c-.18.427-.272.87-.316 1.388-.05.328.467.65.73.988-.398-.314-.787-.675-1.153-.98a12.68 12.68 0 0 1-1.69-1.266c.005 1.58.578 3.38 1.77 4.897.048.058.583-.07.897-.004l1.37.304c.42-.083.832-.272 1.222-.406l1.153-.392c.77-.222 1.54-.297 2.607-.115zm-8.743-25.512c.544-.155 1.175-.155 1.77-.176.114.005.22.194.328.3-.535.096-1.056.298-1.574.427-.294.073-.597.132-.888.23-.26.142-.5.333-.777.408-1.003.298-2 .617-2.934 1.06-.05-.1-.148-.312-.14-.318.533-.25 1.072-.496 1.64-.667.56-.2 1.13-.382 1.717-.495.168-.038.362.026.543.042.095-.28.108-.734.315-.812zm16.918 10.138c.1.304.127.63.185.94-.293-.246-.734-.412-.842-.703-1.423-3.34-4-6.252-7.364-7.733-1.2-.595-2.51-.905-3.8-1.21-.252-.037-.476-.227-.72-.348.268-.042.548-.146.813-.114a21.62 21.62 0 0 1 3.913 1.178c.35.138.9-.05 1.3-.194.2-.066.222-.424.322-.653.282.465.625.918.768 1.368.126.396.04.792.012 1.202.427-.044.87-.076 1.33-.094l.816-.1.046.313-.875-.267c-.153.993.253 1.397.766 1.798.54.362 1.208.7 1.572 1.223l.72-.613c.063.08.116.165.17.25l-.925.354c.73 1.063 1.35 2.2 1.812 3.402zm.404 5.725a11.98 11.98 0 0 0 .005-3.108c.418 1.118.65 2.317.726 3.56.003.19-.045.387-.086.576a6.06 6.06 0 0 1-.285.97c-.1.318-.212.635-.37.932.015-.38-.05-.77-.092-1.13a5.792 5.792 0 0 0-.19-1.003c.133-.348.28-.563.293-.798zm-27.45-10.173c.492-.556.975-1.147 1.563-1.628.48-.46 1.03-.836 1.587-1.208.327-.242.68-.437 1.04-.622-.246.362-.398.786-.696 1.092-.467.442-1.06.763-1.723 1.38-.496.2-1.12.595-1.77.986zm26.26 16.08c-.25.74-.54 1.548-1.095 2.2-.132.18-.662.14-1.012.134.206-.287.372-.612.526-.95s.324-.65.42-1.046c.455-.12.833-.204 1.16-.348zm-34.764-7.86c.007-.597-.1-1.297.1-1.806.398-.9 1.008-1.645 1.6-2.37a6.27 6.27 0 0 0-.069.87c-.692 1.12-1.176 2.193-1.63 3.305zm17.74-15.748c.67-.372 1.35-.74 2.13-.882.377-.08.9.377 1.317.62-.642.08-1.27.237-1.76.367a12.893 12.893 0 0 0-1.687-.104zm-.09-2.902l-1.676.35-1.644.463c-.28.07-.62-.03-.93-.02.788-.384 1.616-.66 2.34-.947.815.04 1.367.106 1.91.155zm-15.23 18.32c-.05-.254-.2-.554-.13-.767.285-.84.7-1.625 1.15-2.374-.157.454-.196.946-.327 1.588-.242.41-.458.978-.692 1.553zm22.97-15.374c.546 0 1.15-.096 1.643.118.55.232 1.01.623 1.458 1.02-.5-.125-1.046-.143-1.587-.214a11.755 11.755 0 0 0-1.514-.924zm15.278 20.372c-.013.46.077.963-.08 1.396a9.358 9.358 0 0 1-1.078 2.047c.186-.556.302-1.127.412-1.82.292-.493.514-1.05.746-1.623zm-6.253-19.527c.238.057.6.07.703.2.793.912 1.443 1.877 2.016 2.86-.444-.36-.846-.748-1.577-1.268-.3-.5-.664-1.16-1.142-1.782zm-21.984-.123c-.26.1-.596-.03-.905-.05.384-.284.742-.64 1.193-.82.238-.103.6-.023 1.4-.012-.887.468-1.268.736-1.688.88zm6.423-4.024c.436-.095.88-.25 1.322-.26.435-.01.866.177 1.3.276-.448.07-.896.102-1.383.22l-1.23-.236zm11.666 31.703c-.43.33-.855.692-1.39.844-.272.076-.674-.122-1.007-.257.323-.16.626-.403.97-.636.52.067.97.067 1.428.05zm-20.937 8.386c.422.433.73.97 1.13 1.425-.306-.08-.643-.178-.876-.35a10.178 10.178 0 0 1-1.625-1.634c.76.36 1.2.387 1.37.56zm20.32-35.332c.313.012.672 0 .903.153.252.173.367.5.532.772l-.976-.15c-.165-.3-.302-.555-.46-.776zm-19.834-2.48c.412-.182.865-.264 1.296-.384-.207.19-.373.43-.615.562-.426.244-.912.4-1.348.646l-.164-.2c.263-.235.514-.503.83-.635zm2.266.59c-.15.042-.35-.08-.527-.118a8.705 8.705 0 0 1 1.195-.567c.137-.052.332.026.78.08-.674.284-1.05.482-1.448.604zm-5.493 30.168c.215.183.483.334.617.552.132.19.102.478.15.73-.207-.207-.456-.38-.726-.706l-.04-.576zm27.78-24.36c-.49-.448-1.043-.824-1.563-1.236-.173-.147-.285-.398-.44-.594.306.126.597.278.658.315.6.62.994 1.056 1.346 1.515zm-11.36-8.538c.22-.062.46-.2.668-.165.38.065.734.212 1.092.354-.29-.004-.582.028-.967.05l-.793-.24zm-13.684 35.923c.36.17.728.31 1.057.514.12.073.16.302.24.46l-.964-.283-.333-.69zm25.72-23.286c-.075-.16.013-.394.01-.59.202.21.382.435.535.68.088.174.15.373.295 1.053-.46-.677-.725-.872-.84-1.143zm4.902 2.66l-.202-1.16c.082.065.204.112.24.2.177.4.287.855.515 1.718-.348-.478-.52-.608-.552-.76zm-2.56-5.544c-.07-.135-.088-.3-.13-.437.17.206.357.403.506.627.056.085.03.224.05.466-.188-.29-.328-.466-.427-.656zm-2.03 18.017c-.06-.042.044-.324.052-.506.203-.045.43-.15.608-.128.07.01.016.32.004.678-.3.01-.528.05-.663-.044zm-5.827 2.735c.167-.012.392.065.466.17.046.064-.158.347-.26.367-.17.025-.335-.063-.585-.168.166-.14.285-.366.38-.368zm2.947-27.515c-.143-.155-.153-.354-.222-.536.215.084.47.138.634.267.137.105.168.298.283.532-.312-.115-.6-.16-.695-.263zm-27.86 6.767l.558-.633c-.001.1.043.268-.01.318-.2.195-.434.352-.68.553.048-.1.08-.175.13-.238zm9.493-5.8c-.175.048-.362.035-.546.05.17-.092.333-.208.516-.268.173-.064.37-.053.76-.073-.377.135-.55.235-.73.3zm24.766 16.143a6.16 6.16 0 0 1 .47.461c.005.007-.093.3-.116.29-.168-.063-.328-.166-.507-.262l.153-.5zm-36.08-8.443c-.126.095-.288.07-.435.098.042-.13.06-.303.134-.38.113-.124.266-.183.577-.333-.164.313-.188.553-.276.615zm25.58-9.328c.22.03.45.057.648.154.183.087.33.246.5.374l-.616-.106a5.436 5.436 0 0 0-.522-.422zm-5.637.78c-.114-.034-.18-.225-.215-.35-.008-.027.245-.116.338-.09.157.047.28.164.518.316-.308.065-.506.162-.64.123zm-18.143 2.73c.08-.124.14-.26.244-.367.073-.075.202-.112.305-.164l-.26.54-.288-.008z" fill="#8167a9" opacity=".06"/></svg>